<?xml version="1.0" encoding="UTF-8" standalone="no"?>

<svg width="132px" height="132px" viewBox="0 0 132 132" version="1.1" xmlns="http://www.w3.org/2000/svg" xmlns:xlink="http://www.w3.org/1999/xlink"><title data-v-5a5d97ae="">virus-01</title> <desc data-v-5a5d97ae="">Created with Sketch.</desc> <g data-v-5a5d97ae="" id="Page-1" stroke="none" stroke-width="1" fill="none" fill-rule="evenodd"><g data-v-5a5d97ae="" id="home" transform="translate(-1117.000000, -247.000000)"><g data-v-5a5d97ae="" id="virus-01" transform="translate(1119.000000, 249.000000)"><circle data-v-5a5d97ae="" id="Oval" fill="#CDE250" fill-rule="nonzero" cx="64.0901408" cy="63.9789671" r="38.6674178"></circle> <g data-v-5a5d97ae="" id="Group" transform="translate(38.159624, 14.422535)" fill="#EFE526" fill-rule="nonzero" stroke="#000000" stroke-linecap="round" stroke-linejoin="round" stroke-width="3.19032"><path data-v-5a5d97ae="" d="M14.2212207,5.7029108 L4.11342723,9.8884507 C2.6200939,10.5074178 0.90741784,9.79830986 0.288450704,8.30497653 L0.288450704,8.30497653 C-0.330516432,6.81164319 0.378591549,5.09896714 1.87192488,4.48 L11.9797183,0.294460094 C13.4730516,-0.324507042 15.1857277,0.384600939 15.8046948,1.87793427 L15.8046948,1.87793427 C16.423662,3.37126761 15.714554,5.08394366 14.2212207,5.7029108 Z" id="Path"></path> <path data-v-5a5d97ae="" d="M9.16732394,7.7971831 L11.589108,13.6443192" id="Path"></path></g> <circle data-v-5a5d97ae="" id="Oval" stroke="#000000" stroke-width="3.19032" stroke-linecap="round" stroke-linejoin="round" cx="64.0901408" cy="63.9789671" r="38.6674178"></circle> <g data-v-5a5d97ae="" id="Group" transform="translate(14.723005, 36.957746)" fill="#EFE526" fill-rule="nonzero" stroke="#000000" stroke-linecap="round" stroke-linejoin="round" stroke-width="3.19032"><path data-v-5a5d97ae="" d="M10.0777465,4.29370892 L5.89220657,14.4015023 C5.27323944,15.8948357 3.56056338,16.6039437 2.06723005,15.9849765 L2.06723005,15.9849765 C0.573896714,15.3660094 -0.135211268,13.6533333 0.483755869,12.16 L4.66929577,2.05220657 C5.28826291,0.558873239 7.00093897,-0.150234742 8.4942723,0.468732394 L8.4942723,0.468732394 C9.98760563,1.08769953 10.6967136,2.80037559 10.0777465,4.29370892 Z" id="Path"></path> <path data-v-5a5d97ae="" d="M7.98347418,9.34760563 L13.833615,11.7693897" id="Path"></path></g> <g data-v-5a5d97ae="" id="Group" transform="translate(14.422535, 73.615023)" fill="#EFE526" fill-rule="nonzero" stroke="#000000" stroke-linecap="round" stroke-linejoin="round" stroke-width="3.19032"><path data-v-5a5d97ae="" d="M5.81408451,2.07624413 L9.99962441,12.1840376 C10.6185915,13.6773709 9.90948357,15.3900469 8.41615023,16.0090141 L8.41615023,16.0090141 C6.9228169,16.6279812 5.21014085,15.9188732 4.59117371,14.4255399 L0.405633803,4.31774648 C-0.213333333,2.82441315 0.495774648,1.11173709 1.98910798,0.492769953 L1.98910798,0.492769953 C3.48244131,-0.126197183 5.19511737,0.582910798 5.81408451,2.07624413 Z" id="Path"></path> <path data-v-5a5d97ae="" d="M7.90835681,7.13014085 L13.7584977,4.70535211" id="Path"></path></g> <g data-v-5a5d97ae="" id="Group" transform="translate(37.258216, 99.455399)" fill="#EFE526" fill-rule="nonzero" stroke="#000000" stroke-linecap="round" stroke-linejoin="round" stroke-width="3.19032"><path data-v-5a5d97ae="" d="M4.10441315,3.81295775 L14.2122066,7.99849765 C15.7055399,8.61746479 16.4146479,10.3301408 15.7956808,11.8234742 L15.7956808,11.8234742 C15.1767136,13.3168075 13.4640376,14.0259155 11.9707042,13.4069484 L1.8629108,9.22140845 C0.369577465,8.60244131 -0.339530516,6.88976526 0.27943662,5.39643192 L0.27943662,5.39643192 C0.898403756,3.90610329 2.61107981,3.19699531 4.10441315,3.81295775 Z" id="Path"></path> <path data-v-5a5d97ae="" d="M9.15830986,5.90723005 L11.5800939,0.0570892019" id="Path"></path></g> <g data-v-5a5d97ae="" id="Group" transform="translate(73.915493, 99.755869)" fill="#EFE526" fill-rule="nonzero" stroke="#000000" stroke-linecap="round" stroke-linejoin="round" stroke-width="3.19032"><path data-v-5a5d97ae="" d="M1.88694836,8.07661972 L11.9947418,3.89107981 C13.4880751,3.27211268 15.2007512,3.98122066 15.8197183,5.47455399 L15.8197183,5.47455399 C16.4386854,6.96788732 15.7295775,8.68056338 14.2362441,9.29953052 L4.1284507,13.4850704 C2.63511737,14.1040376 0.922441315,13.3949296 0.303474178,11.9015962 L0.303474178,11.9015962 C-0.315492958,10.4082629 0.393615023,8.69558685 1.88694836,8.07661972 Z" id="Path"></path> <path data-v-5a5d97ae="" d="M6.94084507,5.98234742 L4.51605634,0.135211268" id="Path"></path></g> <g data-v-5a5d97ae="" id="Group" transform="translate(99.455399, 74.516432)" fill="#EFE526" fill-rule="nonzero" stroke="#000000" stroke-linecap="round" stroke-linejoin="round" stroke-width="3.19032"><path data-v-5a5d97ae="" d="M3.92713615,12.1900469 L8.11267606,2.08225352 C8.73164319,0.588920188 10.4443192,-0.120187793 11.9376526,0.498779343 L11.9376526,0.498779343 C13.4309859,1.11774648 14.1400939,2.83042254 13.5211268,4.32375587 L9.33558685,14.4315493 C8.71661972,15.9248826 7.00394366,16.6339906 5.51061033,16.0150235 L5.51061033,16.0150235 C4.017277,15.3960563 3.30816901,13.6833803 3.92713615,12.1900469 Z" id="Path"></path> <path data-v-5a5d97ae="" d="M6.01840376,7.13615023 L0.168262911,4.7143662" id="Path"></path></g> <g data-v-5a5d97ae="" id="Group" transform="translate(99.755869, 37.859155)" fill="#EFE526" fill-rule="nonzero" stroke="#000000" stroke-linecap="round" stroke-linejoin="round" stroke-width="3.19032"><path data-v-5a5d97ae="" d="M8.18779343,14.4075117 L4.00225352,4.29971831 C3.38328638,2.80638498 4.09239437,1.09370892 5.5857277,0.474741784 L5.5857277,0.474741784 C7.07906103,-0.144225352 8.79173709,0.564882629 9.41070423,2.05821596 L13.5962441,12.1660094 C14.2152113,13.6593427 13.5061033,15.3720188 12.01277,15.9909859 L12.01277,15.9909859 C10.5194366,16.6129577 8.80676056,15.9008451 8.18779343,14.4075117 Z" id="Path"></path> <path data-v-5a5d97ae="" d="M6.09652582,9.35361502 L0.246384977,11.7784038" id="Path"></path></g> <g data-v-5a5d97ae="" id="Group" transform="translate(74.816901, 14.723005)" fill="#EFE526" fill-rule="nonzero" stroke="#000000" stroke-linecap="round" stroke-linejoin="round" stroke-width="3.19032"><path data-v-5a5d97ae="" d="M12.0037559,9.96657277 L1.89596244,5.78103286 C0.402629108,5.16206573 -0.306478873,3.44938967 0.312488263,1.95605634 L0.312488263,1.95605634 C0.931455399,0.462723005 2.64413146,-0.246384977 4.13746479,0.37258216 L14.2452582,4.55812207 C15.7385915,5.1770892 16.4476995,6.88976526 15.8287324,8.38309859 L15.8287324,8.38309859 C15.2067606,9.87643192 13.4970892,10.5855399 12.0037559,9.96657277 Z" id="Path"></path> <path data-v-5a5d97ae="" d="M6.94985915,7.87230047 L4.52507042,13.7224413" id="Path"></path></g> <g data-v-5a5d97ae="" id="Group" transform="translate(54.985915, 0.000000)" fill="#CDE250" fill-rule="nonzero" stroke="#000000" stroke-linecap="round" stroke-linejoin="round" stroke-width="3.19032"><rect data-v-5a5d97ae="" id="Rectangle" x="6.81765258" y="8.29896714" width="5.56169014" height="17.0125822"></rect> <path data-v-5a5d97ae="" d="M15.0685446,8.29896714 L4.1284507,8.29896714 C1.85690141,8.29896714 0.0150234742,6.4570892 0.0150234742,4.18553991 L0.0150234742,4.18553991 C0.0150234742,1.91399061 1.85690141,0.0721126761 4.1284507,0.0721126761 L15.0685446,0.0721126761 C17.3400939,0.0721126761 19.1819718,1.91399061 19.1819718,4.18553991 L19.1819718,4.18553991 C19.1819718,6.4570892 17.3400939,8.29896714 15.0685446,8.29896714 Z" id="Path"></path></g> <g data-v-5a5d97ae="" id="Group" transform="translate(14.122066, 13.220657)" fill="#CDE250" fill-rule="nonzero" stroke="#000000" stroke-linecap="round" stroke-linejoin="round"><polygon data-v-5a5d97ae="" id="Rectangle" stroke-width="3.1902894" transform="translate(16.959957, 17.055200) rotate(-45.000000) translate(-16.959957, -17.055200) " points="14.1791382 8.5489902 19.740775 8.5489902 19.740775 25.5614092 14.1791382 25.5614092"></polygon> <path data-v-5a5d97ae="" d="M14.8131455,7.17220657 L7.07605634,14.9092958 C5.4685446,16.5168075 2.86347418,16.5168075 1.25896714,14.9092958 L1.25896714,14.9092958 C-0.348544601,13.301784 -0.348544601,10.6967136 1.25896714,9.09220657 L8.99605634,1.35511737 C10.6035681,-0.252394366 13.2086385,-0.252394366 14.8131455,1.35511737 L14.8131455,1.35511737 C16.4206573,2.95962441 16.4206573,5.56469484 14.8131455,7.17220657 Z" id="Path" stroke-width="3.19032"></path></g> <g data-v-5a5d97ae="" id="Group" transform="translate(0.000000, 53.784038)" fill="#CDE250" fill-rule="nonzero" stroke="#000000" stroke-linecap="round" stroke-linejoin="round" stroke-width="3.19032"><polygon data-v-5a5d97ae="" id="Rectangle" transform="translate(16.917844, 9.703091) rotate(-90.000000) translate(-16.917844, -9.703091) " points="14.1369991 1.1968 19.6986892 1.1968 19.6986892 18.2093822 14.1369991 18.2093822"></polygon> <path data-v-5a5d97ae="" d="M8.41314554,4.23361502 L8.41314554,15.1737089 C8.41314554,17.4452582 6.57126761,19.2871362 4.29971831,19.2871362 L4.29971831,19.2871362 C2.02816901,19.2871362 0.18629108,17.4452582 0.18629108,15.1737089 L0.18629108,4.23361502 C0.18629108,1.96206573 2.02816901,0.120187793 4.29971831,0.120187793 L4.29971831,0.120187793 C6.57126761,0.117183099 8.41314554,1.95906103 8.41314554,4.23361502 Z" id="Path"></path></g> <g data-v-5a5d97ae="" id="Group" transform="translate(13.220657, 88.938967)" fill="#CDE250" fill-rule="nonzero" stroke="#000000" stroke-linecap="round" stroke-linejoin="round"><polygon data-v-5a5d97ae="" id="Rectangle" stroke-width="3.1902894" transform="translate(17.163772, 8.049038) rotate(-135.000000) translate(-17.163772, -8.049038) " points="14.3829538 -0.457171833 19.9445906 -0.457171833 19.9445906 16.5552472 14.3829538 16.5552472"></polygon> <path data-v-5a5d97ae="" d="M7.28338028,10.1949296 L15.0204695,17.9320188 C16.6279812,19.5395305 16.6279812,22.1446009 15.0204695,23.749108 L15.0204695,23.749108 C13.4129577,25.3566197 10.8078873,25.3566197 9.20338028,23.749108 L1.46629108,16.0120188 C-0.141220657,14.404507 -0.141220657,11.7994366 1.46629108,10.1949296 L1.46629108,10.1949296 C3.07079812,8.58741784 5.67586854,8.58741784 7.28338028,10.1949296 Z" id="Path" stroke-width="3.19032"></path></g> <g data-v-5a5d97ae="" id="Group" transform="translate(53.784038, 102.460094)" fill="#CDE250" fill-rule="nonzero" stroke="#000000" stroke-linecap="round" stroke-linejoin="round" stroke-width="3.19032"><polygon data-v-5a5d97ae="" id="Rectangle" transform="translate(9.814115, 8.690269) rotate(-180.000000) translate(-9.814115, -8.690269) " points="7.03326949 0.183977458 12.5949596 0.183977458 12.5949596 17.1965596 7.03326949 17.1965596"></polygon> <path data-v-5a5d97ae="" d="M4.34478873,17.1988732 L15.2848826,17.1988732 C17.5564319,17.1988732 19.3983099,19.0407512 19.3983099,21.3123005 L19.3983099,21.3123005 C19.3983099,23.5838498 17.5564319,25.4257277 15.2848826,25.4257277 L4.34478873,25.4257277 C2.07323944,25.4257277 0.231361502,23.5838498 0.231361502,21.3123005 L0.231361502,21.3123005 C0.231361502,19.0407512 2.07323944,17.1988732 4.34478873,17.1988732 Z" id="Path"></path></g> <g data-v-5a5d97ae="" id="Group" transform="translate(88.938967, 89.539906)" fill="#CDE250" fill-rule="nonzero" stroke="#000000" stroke-linecap="round" stroke-linejoin="round"><polygon data-v-5a5d97ae="" id="Rectangle" stroke-width="3.1902894" transform="translate(8.161950, 8.143291) rotate(135.000000) translate(-8.161950, -8.143291) " points="5.38113149 -0.362918462 10.9427683 -0.362918462 10.9427683 16.6495005 5.38113149 16.6495005"></polygon> <path data-v-5a5d97ae="" d="M10.3061033,18.0251643 L18.0431925,10.2880751 C19.6507042,8.68056338 22.2557746,8.68056338 23.8602817,10.2880751 L23.8602817,10.2880751 C25.4677934,11.8955869 25.4677934,14.5006573 23.8602817,16.1051643 L16.1231925,23.8422535 C14.5156808,25.4497653 11.9106103,25.4497653 10.3061033,23.8422535 L10.3061033,23.8422535 C8.70159624,22.2377465 8.70159624,19.6326761 10.3061033,18.0251643 Z" id="Path" stroke-width="3.19032"></path></g> <g data-v-5a5d97ae="" id="Group" transform="translate(102.460094, 54.685446)" fill="#CDE250" fill-rule="nonzero" stroke="#000000" stroke-linecap="round" stroke-linejoin="round" stroke-width="3.19032"><polygon data-v-5a5d97ae="" id="Rectangle" transform="translate(8.802854, 9.784939) rotate(90.000000) translate(-8.802854, -9.784939) " points="6.02200937 1.27864788 11.5836995 1.27864788 11.5836995 18.29123 6.02200937 18.29123"></polygon> <path data-v-5a5d97ae="" d="M17.3100469,15.2548357 L17.3100469,4.31474178 C17.3100469,2.04319249 19.1519249,0.201314554 21.4234742,0.201314554 L21.4234742,0.201314554 C23.6950235,0.201314554 25.5369014,2.04319249 25.5369014,4.31474178 L25.5369014,15.2548357 C25.5369014,17.526385 23.6950235,19.3682629 21.4234742,19.3682629 L21.4234742,19.3682629 C19.1519249,19.3712676 17.3100469,17.5293897 17.3100469,15.2548357 Z" id="Path"></path></g> <path data-v-5a5d97ae="" d="M28.9352113,20.3928638 L21.1981221,28.1299531 C19.5906103,29.7374648 16.9855399,29.7374648 15.3810329,28.1299531 L15.3810329,28.1299531 C13.7735211,26.5224413 13.7735211,23.9173709 15.3810329,22.3128638 L23.1181221,14.5757746 C24.7256338,12.9682629 27.3307042,12.9682629 28.9352113,14.5757746 L28.9352113,14.5757746 C30.542723,16.1802817 30.542723,18.7853521 28.9352113,20.3928638 Z" id="Path" stroke="#000000" stroke-width="3.19032" fill="#CDE250" fill-rule="nonzero" stroke-linecap="round" stroke-linejoin="round"></path> <g data-v-5a5d97ae="" id="Group" transform="translate(89.539906, 13.821596)" fill="#CDE250" fill-rule="nonzero" stroke="#000000" stroke-linecap="round" stroke-linejoin="round"><polygon data-v-5a5d97ae="" id="Rectangle" stroke-width="3.1902894" transform="translate(8.253988, 17.149638) rotate(45.000000) translate(-8.253988, -17.149638) " points="5.4731698 8.64342896 11.0348066 8.64342896 11.0348066 25.655848 5.4731698 25.655848"></polygon> <path data-v-5a5d97ae="" d="M18.1393427,15.0024413 L10.4022535,7.26535211 C8.79474178,5.65784038 8.79474178,3.05276995 10.4022535,1.44826291 L10.4022535,1.44826291 C12.0097653,-0.159248826 14.6148357,-0.159248826 16.2193427,1.44826291 L23.9564319,9.18535211 C25.5639437,10.7928638 25.5639437,13.3979343 23.9564319,15.0024413 L23.9564319,15.0024413 C22.3489202,16.6099531 19.7438498,16.6099531 18.1393427,15.0024413 Z" id="Path" stroke-width="3.19032"></path></g> <path data-v-5a5d97ae="" d="M90.8018779,52.0202817 C87.394554,55.079061 82.1513615,54.7966197 79.0925822,51.3892958 C76.0338028,47.9819718 76.3162441,42.7387793 79.7235681,39.68 C83.130892,36.6212207 86.9468545,38.183662 90.0056338,41.5909859 C93.0674178,45.0013146 94.2092019,48.9615023 90.8018779,52.0202817 Z" id="Path" fill="#B7BF13" fill-rule="nonzero"></path> <circle data-v-5a5d97ae="" id="Oval" fill="#B7BF13" fill-rule="nonzero" cx="73.1643192" cy="87.1692019" r="5.95230047"></circle> <path data-v-5a5d97ae="" d="M73.6781221,33.1568075 C77.6082629,34.382723 81.2199061,36.341784 84.3507981,38.8717371" id="Path" stroke="#FFFFFF" stroke-width="3.19032" opacity="0.7" stroke-linecap="round" stroke-linejoin="round"></path> <path data-v-5a5d97ae="" d="M88.6324883,43.0392488 C90.2880751,44.977277 91.7183099,47.1106103 92.8841315,49.4031925" id="Path" stroke="#FFFFFF" stroke-width="3.19032" opacity="0.7" stroke-linecap="round" stroke-linejoin="round"></path> <circle data-v-5a5d97ae="" id="Oval" fill="#F4F7BA" fill-rule="nonzero" cx="45.0193427" cy="75.8415023" r="7.57183099"></circle> <circle data-v-5a5d97ae="" id="Oval" fill="#F4F7BA" fill-rule="nonzero" cx="60.2892019" cy="57.9455399" r="3.80394366"></circle> <circle data-v-5a5d97ae="" id="Oval" fill="#B7BF13" fill-rule="nonzero" cx="43.2826291" cy="48.2373709" r="5.19511737"></circle> <circle data-v-5a5d97ae="" id="Oval" fill="#B7BF13" fill-rule="nonzero" cx="52.7053521" cy="73.8253521" r="2.75230047"></circle> <path data-v-5a5d97ae="" d="M99.5485446,64.4717371 C99.5515493,64.3064789 99.5605634,64.1442254 99.5605634,63.9789671 C99.5605634,44.4214085 83.6476995,28.5085446 64.0901408,28.5085446 C44.5325822,28.5085446 28.6197183,44.4214085 28.6197183,63.9789671 C28.6197183,64.1442254 28.6287324,64.3064789 28.6317371,64.4717371" id="Path" stroke="#FFFFFF" stroke-width="3.19032" opacity="0.25" stroke-linecap="round" stroke-linejoin="round"></path></g></g></g></svg>